<svg width="213" height="212" viewBox="0 0 213 212" fill="none" xmlns="http://www.w3.org/2000/svg"><circle cx="106.704" cy="106" r="105.962" fill="white"></circle><circle cx="106.705" cy="106" r="52.0892" fill="black"></circle><g class="img__circle" style="transform-origin: center center; transform: rotate(143.996deg);"><path d="M31.102 139.392C37.5497 153.99 48.0858 166.41 61.4379 175.15C74.79 183.891 90.387 188.578 106.345 188.648C122.304 188.717 137.941 184.165 151.368 175.541C164.796 166.917 175.44 154.589 182.014 140.048L172.226 135.623C166.506 148.274 157.246 158.999 145.564 166.503C133.881 174.006 120.276 177.967 106.392 177.906C92.5077 177.846 78.9378 173.767 67.321 166.163C55.7042 158.558 46.5375 147.753 40.9278 135.053L31.102 139.392Z" fill="black"></path><path d="M27.3415 114.597L25.6516 114.534L25.733 112.345L26.7508 112.383L27.5076 111.68L27.6632 107.494L26.9237 106.698L24.4465 106.605L23.6697 107.327L23.4798 112.435L21.4476 114.34L17.8567 114.206L15.9523 112.155L16.1722 106.24L18.2236 104.336L19.9327 104.399L19.8513 106.588L18.8143 106.55L18.0568 107.272L17.9083 111.266L18.6102 112.042L20.8377 112.125L21.5953 111.403L21.7851 106.295L23.8366 104.391L27.6771 104.533L29.6185 106.625L29.3929 112.693L27.3415 114.597Z" fill="black"></path><path d="M28.5118 95.5079L19.7553 93.0003L18.2656 90.315L20.0008 84.2557L22.6386 82.7923L24.3382 83.279L23.7245 85.422L22.7823 85.1522L21.5413 85.8562L20.4304 89.7356L21.1634 91.0849L28.3311 93.1375L29.6672 92.3807L30.7781 88.5013L30.0979 87.2471L29.1557 86.9773L29.7694 84.8344L31.469 85.3211L32.9323 87.9588L31.1971 94.0182L28.5118 95.5079Z" fill="black"></path><path d="M24.862 71.0838L25.9909 69.1617L30.9783 72.0909L34.073 66.8218L29.0855 63.8925L30.2144 61.9705L41.8132 68.7826L40.6843 70.7047L35.73 67.7949L32.6353 73.0641L37.5896 75.9739L36.4608 77.8959L24.862 71.0838Z" fill="black"></path><path d="M37.6927 51.6217L44.2568 44.9247L45.6154 46.2564L40.6116 51.3614L43.3562 54.0517L47.97 49.3446L49.3148 50.6628L44.7011 55.3699L47.5006 58.1139L52.5045 53.0088L53.8631 54.3405L47.2989 61.0374L37.6927 51.6217Z" fill="black"></path><path d="M53.0322 37.3074L60.1097 32.9323L63.2043 33.6625L67.9128 41.2794L67.1825 44.374L60.105 48.7491L53.0322 37.3074ZM65.2568 43.3053L65.6227 41.814L61.7023 35.4721L60.2048 35.1327L55.9387 37.7698L60.9907 45.9425L65.2568 43.3053Z" fill="black"></path><path d="M76.574 36.8182L73.3025 26.1035L75.4345 25.4526L78.487 35.4506L79.8488 36.1599L83.6348 35.004L84.3682 33.6549L81.3156 23.657L83.4475 23.0061L86.7189 33.7208L85.2252 36.5276L79.3808 38.312L76.574 36.8182Z" fill="black"></path><path d="M95.7915 20.5126L98.0166 20.3794L98.7066 31.9077L105.459 31.5035L105.572 33.4025L96.5952 33.9399L95.7915 20.5126Z" fill="black"></path><path d="M115.26 20.2063L124.516 21.7111L124.21 23.5888L117.155 22.4418L116.538 26.2352L123.044 27.2928L122.741 29.1516L116.236 28.094L115.607 31.9633L122.662 33.1103L122.357 34.9881L113.101 33.4833L115.26 20.2063Z" fill="black"></path><path d="M148.564 30.1693L150.41 31.2003L148.093 45.3144L146.114 44.2085L146.663 40.8614L142.285 38.4153L139.722 40.6377L137.743 39.5318L148.564 30.1693ZM147.119 38.9811L148.166 33.0502L148.132 33.0314L143.663 37.0504L147.119 38.9811Z" fill="black"></path><path d="M162.772 53.973L169.708 48.0691L172.769 48.3151L176.854 53.1146L176.612 56.1214L175.266 57.2673L173.821 55.5699L174.568 54.9347L174.668 53.5115L172.053 50.4386L170.523 50.3021L164.846 55.1348L164.736 56.6664L167.352 59.7393L168.773 59.8671L169.519 59.2319L170.964 60.9293L169.618 62.0752L166.611 61.8336L162.526 57.034L162.772 53.973Z" fill="black"></path><path d="M186.657 67.6644L187.602 69.5552L177.743 79.9174L176.73 77.8891L179.068 75.4317L176.826 70.9454L173.457 71.34L172.443 69.3117L186.657 67.6644ZM180.503 74.1343L184.706 69.8211L184.689 69.7867L178.733 70.5934L180.503 74.1343Z" fill="black"></path><path d="M193.627 83.983L194.151 86.1496L182.926 88.8646L184.516 95.4391L182.667 95.8863L180.553 87.1452L193.627 83.983Z" fill="black"></path><path d="M197.32 102.961L197.373 105.19L185.828 105.469L185.991 112.231L184.089 112.277L183.872 103.286L197.32 102.961Z" fill="black"></path></g><path d="M122.974 91.85C122.974 90.6795 122.025 89.7307 120.854 89.7307H101.781C100.611 89.7307 99.6618 90.6795 99.6618 91.85C99.6618 93.0204 100.611 93.9692 101.781 93.9692H118.735V110.923C118.735 112.094 119.684 113.042 120.854 113.042C122.025 113.042 122.974 112.094 122.974 110.923V91.85ZM94.0533 121.648L122.353 93.3485L119.356 90.3514L91.0563 118.651L94.0533 121.648Z" fill="white"></path></svg>